<?xml version="1.0" encoding="UTF-8"?>
<svg version="1.1" viewBox="0 0 2048 2048" width="512" height="512" xmlns="http://www.w3.org/2000/svg">
<path transform="translate(0)" d="m0 0h2048v2048h-2048z" fill="#FEFEFE"/>
<path transform="translate(504,668)" d="m0 0 20 4 70 15 48 12 27 8 18 6 25 9 21 8 21 9 26 12 19 10 14 7 23 13 13 8 20 13 16 11 19 14 24 18 10 7 5 3 4 4 11 8 19 14 16 12 10 7 9 5 9-8 22-16 13-10 24-18 11-8 14-10 13-10 14-10 17-12 11-7 10-7 10-5 16-10 24-13 32-16 33-14 37-14 40-13 31-9 42-10 71-15 4-1h7v661l-1 1-27 4-61 10-30 6-38 9-33 8-60 18-33 11-32 12-20 8-26 11-28 13-25 12-20 10-23 13-21 12-22 13-5 3-6-1-15-9-22-13-14-8-22-12-23-12-23-11-22-10-54-22-40-14-43-14-46-13-42-10-39-8-38-7-56-9-3-2z" fill="#3B9095"/>
<path transform="translate(440,542)" d="m0 0h64l1 2v66l-6 2h-44l-17 4-10 5-8 7-6 10-4 10-2 10v46l3 36 10 102 2 31v39l-3 19-5 16-8 16-7 11-9 10-8 7-11 7-9 5-18 7-10 3 7 3 16 5 16 8 12 9 11 10 10 15 9 19 5 16 2 15v37l-3 45-7 72-4 42-1 18v38l3 17 8 15 7 7 7 5 16 4 9 1 45 1 2 2v66l-4 2-55-1-14-1-22-5-16-6-15-8-10-8-14-14-9-13-5-11-6-18-4-19-1-8v-35l3-41 5-54 4-33 3-42 1-23v-23l-3-19-5-12-7-11-9-10-13-9-16-8-31-10-1-1 1-59 9-3 14-4 19-8 12-7 10-9 8-10 7-14 3-9 2-15v-21l-2-41-4-45-3-25-6-68-1-13v-34l2-17 5-21 6-15 4-8 12-16 5-6 11-9 14-9 20-8 23-5z" fill="#3B9095"/>
<path transform="translate(1518,542)" d="m0 0h62l18 3 21 6 16 8 10 6 10 9 9 9 9 13 7 14 6 18 3 18 1 15v15l-2 46-4 43-4 39-5 51-1 14v40l3 13 6 15 10 14 11 10 13 8 21 8 20 5 1 31v30l-21 6-24 10-12 8-11 11-7 11-4 8-5 13-1 5v46l7 73 5 48 3 43 1 21v19l-2 23-5 21-7 18-12 16-9 10-11 9-14 8-11 5-20 6-13 2-18 1h-53l-1-21v-42l1-5 49-2 18-3 16-10 6-8 5-12 4-16v-33l-2-26-4-44-6-60-3-51v-37l3-21 7-21 6-11 7-9 5-7 8-7 12-9 14-8 22-7-1-2-24-9-9-5-14-10-14-14-9-14-6-14-4-13-2-12-1-11v-32l2-38 4-48 4-40 5-55v-35l-3-15-5-12-6-8-9-7-10-5-15-3-42-1-7-1-1-1-1-20v-31l1-15z" fill="#3B9095"/>
<path transform="translate(1352,831)" d="m0 0h6l-3 3-12 6-14 8-24 16-14 11-13 11-8 7-10 9-12 12-6 5-7 8-11 12-12 14-9 11-8 10-11 14-11 15-9 13-10 14-10 15-13 21-10 16-6 10-12 21-14 25-15 28-10 21-9 17-11 23-17 37-11 28-3 9-5-1-10-24-19-43-16-33-14-28-10-19-12-23-14-24-12-21-13-21-8-13-10-14-12-18-11-16-10-13-8-11-8-10-9-11-11-12-8-10-7-7-7-8-24-24-8-7-14-12-9-7-15-11-14-9-15-9-17-9v-1h8l40 10 40 12 28 10 28 11 35 16 27 14 22 13 19 12 17 12 26 20 14 13 8 7 21 21 14 16 2 1 2-5 14-15 11-12 8-8 8-7 10-9 10-8 13-10 17-12 10-7 16-10 21-12 27-14 25-12 24-10 19-7 31-11 29-8 30-8z" fill="#FEFEFE"/>
<path transform="translate(1302,912)" d="m0 0h2l1 2v387l-5 2h-102l-2-3v-268l7-11 9-11 6-9 13-16 9-11 12-14 16-17 19-19 8-7 5-4z" fill="#FEFEFE"/>
<path transform="translate(717,912)" d="m0 0 4 2 8 7 12 11 25 25 7 8 12 14 14 17 18 24 6 9 1 3v270l-6 1h-100l-2-3v-183z" fill="#FEFEFE"/>
</svg>
